<svg xmlns="http://www.w3.org/2000/svg" viewBox="0 0 979.9 171.4"><defs><style>.a{fill:#fff;}</style></defs><title>Inspur_logo</title><path class="a" d="M342.9,43.2l-7.5-5.1-11.8-8a1.9,1.9,0,0,1-.9-2.3c1-6.1,2-12.3,2.9-18.4.2-1.5.7-2.2,2.4-2.2h84.3c13.9,0,25.1,9.9,27.3,23.8.7,4.6-.3,8.9-1,13.4-1.5,9.8-3.1,19.6-4.6,29.4-.8,5.1-1.5,10.2-2.5,15.2-3.1,14.4-16.4,27.1-31,29.8a70.2,70.2,0,0,1-7.9.7c-11.7,0-23.4.2-35.1-.1-3.7,0-7.3-1-10.9-1.8-1.3-.2-1.7,0-1.9,1.2-1.7,12.2-3.6,24.3-5.2,36.5-.4,2.8-1.3,4.3-4.2,5.1-11.2,3.3-22.3,6.9-33.4,10.5l-1.7.4c.2-1.5.3-2.8.5-4,1.5-10,3.1-20,4.7-30s2.9-18,4.3-27,2.9-18.4,4.4-27.5,2.5-16.7,3.9-25a4.1,4.1,0,0,1,1.7-2.2L341,44.4Zm34.5-14h-16c-2.5,0-2.4,0-2.8,2.4L355,54.4c-2.1,13.7-4.3,27.3-6.5,41-.4,2.3-.4,2.3,2,2.3h31.4a13.9,13.9,0,0,0,13.7-11.5c.7-3.8,1.3-7.7,1.9-11.6,1.8-11.3,3.5-22.7,5.4-34a9.6,9.6,0,0,0-7.6-11.2l-1.8-.2Z" transform="translate(0 0.1)"/><path class="a" d="M128,119.4c.7-4.3,1.4-8.6,2-12.8l4.5-28c1.1-7.4,2.4-14.8,3.6-22.3.8-5.4,1.8-10.8,2.5-16.2a9.4,9.4,0,0,0-7.8-10.8H131c-8.7,0-17.4.1-26.2,0-1.5,0-2.1.5-2.3,2-1.3,8.4-2.7,16.9-4,25.3L93.4,88.7c-1.5,9.8-3.2,19.6-4.7,29.4-.2,1.3-.8,1.5-1.9,1.5H54.3c-2.3,0-2.3,0-2-2.2,2.4-15,4.7-30,7.1-45,1.8-11.2,3.7-22.3,5.4-33.5s3.1-19.7,4.7-29.6c.2-1.3.5-2.1,2.1-2.1,26.7.1,53.4-.1,80.1.2,11.3.2,19,6.8,23.7,16.8,2.8,6,2.4,12.2,1.3,18.6-1.8,10.6-3.4,21.3-5.1,32s-3.1,19.5-4.7,29.2c-.7,4.7-1.5,9.5-2.2,14.2-.1,1-.5,1.4-1.5,1.4H128.8Z" transform="translate(0 0.1)"/><path class="a" d="M496.7,7.5c-.5,2.9-.9,5.7-1.3,8.6L490.6,46c-1.6,9.7-3.1,19.5-4.7,29.2-.6,3.8-1.3,7.6-1.8,11.3a9.7,9.7,0,0,0,8.3,11.1h27.5c1.6,0,2.1-.6,2.3-2l6.6-41.2c2.3-15,4.7-30,7-45,.3-1.6.9-2.3,2.7-2.3h32.1c2.1,0,2.1,0,1.8,2.1L567,43.2c-1.5,9.7-3.1,19.4-4.6,29.1l-5.1,32-2.1,13.5c-.2,1.6-1.1,1.7-2.4,1.7H474.6c-13.4.2-25.4-10.4-27.2-23.7-.6-4.9.3-9.5,1-14.2,1.4-9.1,2.9-18.3,4.4-27.5,1.1-7.3,2.3-14.6,3.5-21.9s2.5-15.6,3.7-23.4c.2-1.1.5-1.6,1.6-1.6H496Z" transform="translate(0 0.1)"/><path class="a" d="M180,119.5c.9-5.5,1.7-10.7,2.6-15.9.2-1.2.4-2.4.5-3.6a2.4,2.4,0,0,1,2.6-2.4h65.6c7.4.1,14.6-7.8,13.1-15.5a9.3,9.3,0,0,0-9.6-7.8H216.6a27,27,0,0,1-27.2-23.7c-1.4-10.8,1.9-20.3,8.7-28.7A39.8,39.8,0,0,1,225,7.4h83c2.4,0,2.4,0,2,2.4-.9,5.9-2,11.7-2.7,17.5-.3,1.7-.9,2.1-2.5,2.1H238.5c-6.9.1-13.7,7.3-12.6,15.2.7,4.6,5,8,9.9,8h39.3c12.4.1,23.8,9.9,25.8,22.2,3.4,21.4-12.2,40.4-31.5,44.1a43,43,0,0,1-8.8.8H180Z" transform="translate(0 0.1)"/><path class="a" d="M828.8,67.2c-2.6,3.2-5.1,6.5-7.9,9.6-4.4,4.8-9.1,9.5-13.7,14.2-1,1-1.1,1.6,0,2.6l28.7,24.7.9,1.1-2.3.5-14.4-.4-9.8.2a4.4,4.4,0,0,1-2.5-.8c-10.2-10.4-20.4-20.7-30.4-31.2-3.7-3.9-7-8-10.6-12l-1.2-1.1a9.4,9.4,0,0,0-.4,1.6c0,8.9.1,17.7.1,26.6a17.1,17.1,0,0,0-.1,3.2c.4,2.5,2.1,3.7,4.9,3.8h12.4c-.7,2-1.2,3.8-1.9,5.6s-.7,3.2-1.8,4-2.7,0-4,0-5.1.3-7.7.3H754a11,11,0,0,1-10.4-10.9V9.8c0-2.5,0-2.5,2.5-2.5H773c1.7,0,2.5-.6,2.2-2.3V4.8c0-4.9,0-4.9,4.8-4.9h14.9c1.8,0,2.5.6,2.2,2.3v.2c0,4.8,0,4.8,5,4.8h15.6c5.5.1,10.6,4.6,10.6,10.1.2,11.5.2,22.9,0,34.4,0,4.4-4.2,8.7-8.6,9.4a40.3,40.3,0,0,1-4.9.3H767.6c-.8,0-2.1-.5-2.2.9a12.1,12.1,0,0,0,.1,3.8c.1.2,1,.4,1.5.4h11.7a3.9,3.9,0,0,1,2.9,1.3c3.3,3.7,6.8,7.3,10.2,11,1.1,1.3,1.9,1.5,3.2.1,3.5-3.8,7.2-7.5,10.9-11.2a2.7,2.7,0,0,1,1.8-1.1h20.8ZM799.9,29.6c-1,2.8-2,5.4-2.8,8a2.4,2.4,0,0,1-2.7,1.9H768c-2.5,0-3.1.7-3,3.2l.3,6.6c0,1.4.5,2,1.9,1.9H802c3.1,0,4.7-1.3,4.8-4V21.7a3.8,3.8,0,0,0-3.4-4,28.1,28.1,0,0,0-4.1-.1h-32c-1.5-.1-2.2.4-2.1,2.1s.2,4.8.2,7.3,0,2.4,2.5,2.5c9.8,0,19.7-.1,29.5,0Z" transform="translate(0 0.1)"/><path class="a" d="M672.6,7.3a9.5,9.5,0,0,1-1,1.7L660.7,27.8a2.8,2.8,0,0,1-2.7,1.5c-7.9-.1-15.8.2-23.8-.1a14.4,14.4,0,0,0-14.7,13.1c-.9,7.8-2.4,15.6-3.6,23.3l-5.1,32.2c-1,6.7-2.1,13.3-3.1,20-.2,1.3-.7,1.8-2.2,1.8H572.7c-1.4,0-1.9-.2-1.6-1.9,2-12,3.8-24,5.7-36.1,1.4-8.9,2.9-17.9,4.4-26.8,1-6,1.6-12.2,3.3-18.1,4.5-16,15.8-25,31.7-28.6a37,37,0,0,1,8.8-.8Z" transform="translate(0 0.1)"/><path class="a" d="M0,119.4c.7-4.7,1.5-9.3,2.2-14L7.3,73.3c.8-5.2,1.6-10.4,2.5-15.6a3.5,3.5,0,0,1,1.8-2L32.7,44.4l1.9-1.1-1.8-1.4C27,38,21.3,34,15.4,30.1a1.7,1.7,0,0,1-.9-2.1c1.1-6.4,2.1-12.8,3.1-19.3.2-1.1.6-1.4,1.7-1.4H52.6c1.4-.1,1.7.5,1.5,1.8L47.2,52.3,41.8,85.7c-1.7,10.6-3.3,21.3-5,31.9-.2,1.1-.3,2-1.8,2H1.1Z" transform="translate(0 0.1)"/><path class="a" d="M937.1,119.4c0-5.6,0-11.2.1-16.7.1-8.1.5-16.2.6-24.3.2-18.1.3-36.2.4-54.3,0-1.5.4-2,1.9-1.9H951c1.4,0,1.8.4,1.8,1.8-.1,3.8,0,7.6,0,11.5-.1,1.2.4,1.7,1.7,1.7h9c1.2,0,1.8-.4,1.8-1.7q-.1-8.1,0-16.2c0-1.6-.9-1.7-2.1-1.7H939.7c-1.1,0-1.6-.4-1.5-1.6V8.8c-.1-1.2.5-1.5,1.5-1.5h31.1a9.1,9.1,0,0,1,8.7,7.4,29.8,29.8,0,0,1,.4,4.2V107c0,4.4-1.1,8.4-5.2,10.9a12.4,12.4,0,0,1-5,1.7c-3.5.2-7,0-10.5.1-1.1,0-1.6-.4-1.6-1.5v-7c0-1.1.5-1.4,1.6-1.5,5.5-.2,6.1-.9,6.1-6.4,0-8.1-.1-16.2,0-24.3,0-1.6-.4-2.3-2.2-2.2h-8.8c-1.1,0-1.5.4-1.6,1.5-.1,6.4-.4,12.9-.6,19.3s-.5,10.4-.8,15.6a1.7,1.7,0,0,1-.9,1.4Zm15.7-62.5v8.3c-.1,1.1.3,1.6,1.4,1.6h9.6a1.3,1.3,0,0,0,1.5-1.1v-.4c-.1-5.6-.1-11.1,0-16.7,0-.9-.4-1.3-1.4-1.3h-9.7c-1.1,0-1.5.4-1.4,1.4Z" transform="translate(0 0.1)"/><path class="a" d="M900.6,119.4V103.2c0-2.7,0-2.7-2.6-2.7H887.1c-1.4,0-1.9-.5-1.8-1.8s.1-4.4,0-6.6.4-1.8,1.7-1.7h11.8c1.4,0,1.9-.5,1.9-1.8s-.1-5.1,0-7.7-.5-1.7-1.8-1.6H887.1c-1.3,0-1.8-.4-1.8-1.8.1-16.3.1-32.7,0-49,0-1.3.4-1.8,1.8-1.8h10.4c3.1,0,3.1,0,3.1-3.2,0-1.3,0-2.7.1-4s-.6-1.9-2-1.9H887.5c-1.7.1-2.3-.5-2.2-2.2s.1-4.3,0-6.4.4-1.8,1.7-1.8h11.5c1.6,0,2.4-.5,2.1-2.2V4.8c.1-4.9.1-4.9,4.8-4.9h8c1.1,0,1.6.4,1.6,1.6s0,2.3-.1,3.4a2,2,0,0,0,2.2,2.3h11c1.6,0,2.2.5,2.1,2.2a58.1,58.1,0,0,0,0,5.9c.1,1.7-.7,2.3-2.2,2.3H917.9c-3,0-3,0-3,3,0,1.4.1,2.9,0,4.3s.6,1.8,1.8,1.8h5.1a9,9,0,0,1,8.4,8.7v42c0,1.4-.5,1.8-1.8,1.8H916.7c-1.4,0-1.8.5-1.8,1.9s.1,4.9,0,7.4.6,1.9,2,1.9h11.5c1.4-.1,1.9.5,1.8,1.9s-.1,4.4,0,6.6-.4,1.6-1.6,1.6H917c-1.6,0-2.1.5-2.1,2,.1,3.5,0,7,.1,10.4,0,1-.1,1.7-1.2,2.1l-12.1,4.3ZM907.8,48c2.1,0,4.2-.1,6.3,0s1.7-.4,1.7-1.5c0-2.8,0-5.7-.1-8.5,0-.5-.9-1.3-1.4-1.3h-13c-.8,0-1.4.2-1.4,1.3.1,3,0,6,.1,8.9,0,.4.9,1,1.4,1Zm0,21.2h6.4c.9,0,1.6-.4,1.6-1.4,0-2.8,0-5.6-.1-8.5a1.8,1.8,0,0,0-1.2-1.2q-6.7-.1-13.5,0a1.8,1.8,0,0,0-1.2,1.3c-.2,2.4-.2,4.8-.2,7.2s.5,2.6,2.4,2.6Z" transform="translate(0 0.1)"/><path class="a" d="M735.6,67.8V93.1a2.8,2.8,0,0,1-.7,1.7,202.7,202.7,0,0,1-29,24.1l-1.1.6a9.9,9.9,0,0,1-.2-1.7c0-6.4,0-12.8.1-19.2a3.3,3.3,0,0,1,1-2.3,147.5,147.5,0,0,0,28.7-27.1Z" transform="translate(0 0.1)"/><path class="a" d="M877.3,68.2c0,.5.1.9.1,1.4,0,7.5,0,15.1-.1,22.7a3.8,3.8,0,0,1-.8,2.5,188.3,188.3,0,0,1-28.7,24l-1.2.6c-.1-.5-.1-1-.2-1.4,0-6.5,0-13,.1-19.4a3.7,3.7,0,0,1,1.2-2.4A156.2,156.2,0,0,0,876,69.4l.9-1Z" transform="translate(0 0.1)"/><path class="a" d="M735.6,35.8c-5.3-3.2-10.4-6.3-15.6-9.2s-9.3-4.7-13.9-7.1c-.6-.3-1.4-1.1-1.4-1.6-.1-5.8-.1-11.6-.1-17.5l1,.2a219.2,219.2,0,0,1,28.5,15.7,3.1,3.1,0,0,1,1.5,2.9Z" transform="translate(0 0.1)"/><path class="a" d="M846.5,27a239.2,239.2,0,0,1,27.3,14.7c2.7,1.6,3.9,3.4,3.6,6.7s0,8,0,12v2.2l-1.7-.9a195,195,0,0,0-27.6-15.2,2.7,2.7,0,0,1-1.8-2.8c.1-5,.1-10,.1-14.9A10.9,10.9,0,0,1,846.5,27Z" transform="translate(0 0.1)"/><path class="a" d="M877.4,35.9c-2.8-1.7-5.2-3.4-7.7-4.7-7.1-3.9-14.3-7.7-21.5-11.4a3.1,3.1,0,0,1-1.8-2.9c.1-4.9,0-9.8,0-14.8,0-.5.1-1.1.1-2,4.1,2.1,8.1,3.9,11.8,6,5.9,3.3,11.7,6.8,17.5,10.2a2.9,2.9,0,0,1,1.6,2.9C877.3,24.6,877.4,30,877.4,35.9Z" transform="translate(0 0.1)"/><path class="a" d="M735.6,62.3,712,49.1c-2-1-4.1-1.8-6.1-2.9a2.4,2.4,0,0,1-1.2-1.7c-.1-5.5,0-11,0-16.5a2.4,2.4,0,0,1,.2-.8l1.6.7A201.5,201.5,0,0,1,733.8,43a3.2,3.2,0,0,1,1.8,3.4c-.1,4.8,0,9.6,0,14.4Z" transform="translate(0 0.1)"/></svg>