<?xml version="1.0" encoding="utf-8"?>
<!-- Generator: Adobe Illustrator 16.0.0, SVG Export Plug-In . SVG Version: 6.00 Build 0)  -->
<!DOCTYPE svg PUBLIC "-//W3C//DTD SVG 1.1//EN" "http://www.w3.org/Graphics/SVG/1.1/DTD/svg11.dtd">
<svg version="1.1" id="图层_1" xmlns="http://www.w3.org/2000/svg" xmlns:xlink="http://www.w3.org/1999/xlink" x="0px" y="0px"
	 width="1005.611px" height="293.5px" viewBox="0 0 1005.611 293.5" enable-background="new 0 0 1005.611 293.5"
	 xml:space="preserve">
<g>
	<path fill="#F2F2F2" d="M135.552,0.003h-72.39L46.95,101.379h33.355l12.992-81.207h25.337c2.633,0,4.8,0.983,6.454,2.925
		c1.691,2.002,2.287,4.27,1.874,6.906l-11.43,71.375h33.355l11.496-71.996c1.16-7.713-0.629-14.63-5.747-20.564
		C149.84,3.291,143.437,0.003,135.552,0.003z"/>
	<path fill="#F2F2F2" d="M266.702,49.466c-4.923-5.92-11.431-8.863-19.498-8.863h-34.42c-2.655,0-4.825-1.018-6.497-3.008
		c-1.68-2.016-2.319-4.354-1.876-6.993c0.431-2.874,1.791-5.324,4.008-7.361c2.229-2.05,4.79-3.067,7.635-3.067h61.369l3.238-20.156
		h-75.056c-8.522,0.64-15.187,2.893-22.204,8.741c-7.108,6.32-10.47,12.911-12.15,20.624c-1.428,9.052,0.295,16.538,5.338,22.479
		c5.04,5.949,11.526,8.924,19.479,8.924h34.422c2.774,0,4.993,1,6.54,3.003c1.588,2.006,2.151,4.402,1.721,7.216
		c-0.443,2.722-1.788,5.11-4.057,7.16c-2.278,2.017-4.759,3.044-7.473,3.044h-61.517l-3.203,20.17h74.937
		c8.422-0.54,15.287-2.875,22.362-8.758c6.85-5.883,10.361-12.604,12.153-20.807C273.4,62.822,271.66,55.368,266.702,49.466z"/>
	<path fill="#F2F2F2" d="M483.958,0.003l-12.956,81.189h-25.258c-2.63,0-4.799-1.007-6.505-2.991
		c-1.671-1.984-2.319-4.301-1.87-6.975L448.778,0h-33.353l-11.515,71.896c-1.125,7.899,0.629,14.354,5.604,20.623
		c5.187,5.647,11.463,8.858,19.342,8.858h72.275L517.344,0h-33.387V0.003z"/>
	<path fill="#F2F2F2" d="M538.863,8.854c-6.926,5.932-10.284,12.453-12.233,20.531l-11.535,71.996h33.349l11.396-71.375
		c0.452-2.724,1.815-5.021,4.104-6.942c2.281-1.906,4.769-2.889,7.529-2.889c0,0,24.202-0.102,24.369,0
		c-0.187-0.278,11.835-20.17,11.835-20.17h-46.66C552.207,0.987,546.203,3.374,538.863,8.854z"/>
	<polygon fill="#F2F2F2" points="16.228,0.003 12.991,20.172 31.397,32.586 9.16,44.302 0.032,101.379 33.371,101.379 49.597,0.003 
			"/>
	<path fill="#F2F2F2" d="M372.762,0.003h-78.468l-3.288,20.119l18.481,12.447l-22.187,11.649l-16.521,103.731l35.438-11.122
		l5.546-37.668c3.939,1.783,10.615,2.187,10.615,2.187h33.611c8.853-0.536,15.042-3.948,15.042-3.948
		c16.28-8.725,19.004-24.525,19.004-24.525l7.108-44.454c1.253-7.276-2.103-13.962-2.103-13.962
		C387.802-0.408,372.762,0.003,372.762,0.003z M363.634,30.038l-6.573,41.206c-0.444,2.656-1.791,4.958-4.074,6.958
		c-2.329,1.982-4.771,2.991-7.435,2.991h-30.912l9.754-61.018h30.93c2.629,0,4.807,0.983,6.451,2.924
		C363.463,25.099,364.087,27.383,363.634,30.038z"/>
</g>
<g>
	<g>
		<g>
			<path fill="#F2F2F2" d="M510.353,207.79c-11.713-3.631-27.462-3.397-31.111-15.026c-0.653-2.084-0.751-5.08-0.34-7.38
				c1.696-9.915,8.998-14.002,20.562-14.002c4.221,0,7.664,0.338,10.813,1.415c4.414,1.547,8.116,3.893,11.07,6.855
				c1.146,1.363,2.306,2.703,3.433,4.033c0.063,0.039,0.134,0.066,0.167,0.1c2.986-2.186,6.002-4.403,8.974-6.583v-0.275
				c-8.034-11.055-18.15-16.604-37.621-16.334c-2.448,0.355-4.867,0.706-7.295,1.064c-5.698,1.438-10.227,3.694-14.152,6.831
				c-6.521,5.246-10.823,18.353-6.772,29.447c2.059,5.646,6.144,9.551,10.906,12.492c4.302,2.672,9.806,4.406,15.304,5.801
				c11.236,2.873,25.044,3.729,27.765,15.039c4.338,17.836-13.209,27.229-30.059,23.026c-8.331-2.084-15.215-7.343-19.331-13.713
				h-0.167c-2.958,2.468-5.927,4.924-8.882,7.378v0.266c6.041,8.438,14.529,14.354,26.474,16.875
				c3.058,0.653,7.435,1.262,10.98,0.709c2.8-0.439,5.151-0.121,7.639-0.606c11.479-2.337,19.534-7.831,23.551-17.597
				c1.55-3.713,3.189-9.865,2.286-15.211c-0.523-3.129-0.843-6.119-2.033-8.608C528.336,215.014,520.239,210.881,510.353,207.79z
				 M73.818,174.911c-3.665-5.492-9.294-9.662-16.523-11.595c-5.764-1.533-13.732-1.043-20.91-1.043H0.344
				c-0.658,1.211-0.169,6.215-0.169,8.002v93.802c7.346,0.021,14.715,0.05,22.042,0.084c0.032-12.249,0.066-24.504,0.103-36.741
				h8.949c8.503,0,18.606,0.842,25.681-0.972c15.95-4.069,26.389-21.111,21.103-41.918C77.155,181.027,75.625,177.62,73.818,174.911
				z M56.078,201.132c-0.798,3.044-2.899,5.312-5.716,6.32c-2.638,0.956-6.494,0.725-10.016,0.725H22.41v-26.679h17.573
				c2.824,0.066,5.623,0.135,8.429,0.188c1.74,0.389,3.429,1.088,4.667,2.039c3.032,2.328,3.269,6.131,3.269,11.594
				C56.332,197.302,56.489,199.482,56.078,201.132z M724.384,188.811h-11.41c-0.625-1.392-0.188-4.386-0.188-6.151v-14.587
				c-3.43-0.021-6.838-0.051-10.283-0.082c-0.571,1.273-0.164,3.998-0.164,5.607c0,9.25,2.146,15.211-7.75,15.211h-5.716
				c-0.055,3.349-0.125,6.672-0.17,10.021c1.091,0.59,9.931,0.201,12.22,0.187c0.371,0.82,0.151,2.551,0.151,3.683v40.424
				c0,7.86-0.357,13.272,3.174,17.597c3.883,4.723,15.175,3.473,23.732,3.428c0.047-3.347,0.119-6.705,0.165-10.017
				c-1.681-0.743-9.778-0.188-12.302-0.188c-0.976-0.033-1.949-0.065-2.888-0.098c-0.476-0.52-0.171-2.591-0.171-3.499v-9.866
				c0.035-13.795,0.035-27.612,0.063-41.393h16.173c0.71-1.213,0.232-8.055,0.268-10.104
				C728.195,188.493,725.826,188.811,724.384,188.811z M121.823,185.736c-1.565,0.134-3.168,0.25-4.75,0.371
				c-2.152,0.472-4.335,0.94-6.514,1.396c-10.527,3.544-17.032,10.638-20.907,20.841c-1.02,2.637-1.512,5.731-2.119,8.688
				c-0.722,3.633-0.975,8.873-0.343,12.737c0.485,3.109,0.359,5.77,1.05,8.525c3.116,12.537,9.847,21.598,21.621,25.492
				c4.011,1.313,10.959,2.997,16.706,2.021c3.086-0.504,6.011-0.844,8.689-1.664c10.313-3.181,17.271-10.842,20.853-20.756
				c1.17-3.265,1.681-6.857,2.371-10.646c1.244-6.804,0.083-15.16-1.327-20.653C153.057,196.189,142.056,185.419,121.823,185.736z
				 M134.745,241.994c-1.981,4.014-5.271,6.033-10.461,6.841c-2.513,0.418-5.043-0.354-6.685-0.961
				c-7.965-2.976-8.175-10.953-8.175-21.967c0-5.451-0.379-11.394,1.225-15.314c1.396-3.344,4.06-6.065,7.657-7.204
				c1.428-0.205,2.873-0.406,4.303-0.607c13.73,0.537,13.699,9.848,13.699,23.728C136.31,232.264,136.604,238.176,134.745,241.994z
				 M327.781,185.736c-0.939,0.072-1.856,0.134-2.807,0.188c-2.528,0.45-5.027,0.517-7.294,1.224
				c-8.852,2.757-15.373,7.766-19.413,15.295c-2.305,4.233-3.612,9.074-4.665,14.59c-0.856,4.472-0.95,11.227-0.082,15.749
				c0.459,2.399,0.41,4.487,1.065,6.673c3.696,12.554,10.08,20.064,21.976,24.438c6.885,2.521,19.166,2.859,26.626,0.437
				c5.35-1.715,9.981-3.578,13.972-6.585c1.574-1.432,3.121-2.876,4.666-4.305v-0.438c-3.438-4.303-6.901-8.605-10.363-12.929
				c-0.134-0.048-0.282-0.099-0.444-0.162c-4.125,3.34-6.161,6.319-12.042,8.249c-2,0.676-4.255,0.809-6.859,0.809
				c-10.301,0-18.101-6.556-16.688-17.583c16.328-0.015,32.68-0.069,49.055-0.085c0.017-1.611,0.048-3.209,0.082-4.82
				c0-5.231-0.311-9.953-1.413-13.989C358.698,196.143,348.716,185.419,327.781,185.736z M338.212,218.613
				c-8.759,0.027-17.514,0.063-26.276,0.098c-1.136-0.637-0.07-5.747,0.258-6.768c1.514-4.658,3.816-7.817,8.262-9.504
				c1.33-0.267,2.649-0.52,3.938-0.807c7.851-0.068,11.305,3.497,13.112,9.434C338.058,212.799,338.867,216.24,338.212,218.613z
				 M655.743,221.422c-9.21-2.003-19.498-1.264-21.617-10.271c-2.518-10.779,8.941-15.668,18.808-13.883
				c6.679,1.194,11.92,4.201,15.112,8.871h0.164c2.489-2.185,4.931-4.385,7.399-6.591c0.068-0.13,0.119-0.299,0.166-0.434
				c-5.379-7.401-14.365-12.238-27.332-12.031c-2.282,0.229-4.567,0.464-6.872,0.708c-3.799,0.801-7.514,2.178-10.285,4.131
				c-6.066,4.252-10.705,13.277-7.73,23.9c1.159,4.171,3.952,7.457,7.126,9.664c3.481,2.467,8.003,3.813,12.74,5.023
				c9.867,2.481,20.018,0.624,22.508,10.721c2.521,10.357-8.438,16.422-18.562,14.691c-7.46-1.275-12.134-3.88-16.433-8.186
				c-0.894-0.893-2.152-1.861-2.726-3.076c-0.132-0.032-0.234-0.065-0.354-0.1c-2.703,2.152-5.396,4.303-8.083,6.42
				c0.336,2.152,6.553,7.262,8.336,8.539c3.594,2.539,7.677,4.473,12.654,5.633c2.757,0.656,6.673,1.193,9.849,0.703
				c2.74-0.386,5.01-0.139,7.378-0.703c9.313-2.189,15.732-6.974,18.474-15.723c0.592-1.873,0.941-4.646,0.774-6.783
				c-0.149-2.051,0-3.805-0.422-5.552C674.296,226.98,666.133,223.688,655.743,221.422z M774.843,187.084
				c-0.625,0-1.246,0.032-1.854,0.064c-2.02,0.34-4.015,0.644-6.051,0.977c-5.916,1.563-11.396,4.625-14.858,8.689
				c-4.568,5.36-7.325,11.274-9.243,19.426c-0.536,2.322-0.281,4.556-0.707,7.131v6.334c0.403,2.588,0.171,4.775,0.707,7.129
				c2.003,8.499,5.075,16.337,10.892,21.01c4.063,3.262,8.255,5.732,14.149,7.277c16.541,4.332,33.519-5.715,37.722-16.355
				c-2.71-1.984-5.416-3.965-8.105-5.984h-0.336c-0.369,1.75-1.778,3.229-2.721,4.508c-4.17,5.412-12.642,10.42-23.024,8
				c-8.891-2.086-14.288-7.379-16.438-16.188c-0.505-2.033-1.347-7.01-0.61-9.666c17.987,0,35.97-0.035,53.957-0.066v-4.235
				c0-5.44-0.335-10.051-1.681-14.065C802.051,197.234,793.395,186.76,774.843,187.084z M783.813,220.712h-29.377
				c-1.009-2.198,0.571-7.782,1.142-9.328c2.354-6.251,6.053-10.789,12.223-13.178c1.728-0.675,3.883-0.567,5.715-1.326
				c15.412-0.085,22.541,8.541,22.334,23.649C794.219,221.268,786.286,220.712,783.813,220.712z M930.965,228.281
				c0-15.252,0.39-28.626-8.187-35.52c-2.42-1.949-5.04-3.63-8.369-4.66c-10.761-3.322-22.219,1.101-26.891,7.018
				c-1.668,2.15-2.555,4.432-3.87,7.058v0.165c-0.938-0.165-1.042-1.714-1.41-2.47c-0.875-1.746-2.08-3.444-3.262-4.923
				c-3.913-4.91-10.724-8.033-19.575-7.898c-1.835,0.199-3.701,0.453-5.548,0.67c-3.177,0.844-5.668,2.454-7.902,4.239
				c-1.864,1.474-3.477,4-4.655,6.151c-0.469,0.871-0.772,2.754-1.851,2.988c-0.366-0.82-0.398-10.791-0.082-11.967
				c-0.457-0.57-2-0.353-2.995-0.353h-8.604c-0.033,25.06-0.066,50.17-0.083,75.247c3.833,0,7.669,0.049,11.513,0.086
				c0.037-5.025,0.069-10.02,0.069-15.049v-28.127c0-4.859-0.489-10.731,0.989-14.258c2.002-4.824,6.657-7.533,12.304-8.775
				c3.296-0.736,8-0.438,10.727,0.525c12.672,4.551,10.284,20.788,10.284,37.596c-0.034,9.31-0.067,18.588-0.102,27.869
				c1.549,0.703,9.274,0.203,11.614,0.203c0.018-4.337,0.048-8.674,0.087-13.043v-29.26c0-4.628-0.676-10.691,0.622-14.341
				c1.834-5.276,6.538-8.233,12.387-9.481c2.976-0.635,7.139-0.453,9.744,0.271c10.17,2.756,11.432,11.546,11.432,24.522v16.02
				c-0.027,8.32-0.067,16.688-0.067,25.044c0.419,0.571,1.982,0.353,2.957,0.353h8.64c0.473-1.162,0.086-4.086,0.086-5.719
				L930.965,228.281L930.965,228.281z M1005.306,239.018c-2.049-11.834-10.338-15.33-21.798-17.664
				c-8.827-1.801-18.756-1.381-21.028-9.699c-2.93-10.926,8.185-16.254,18.654-14.385c6.355,1.108,12.421,4.086,15.114,8.869
				c1.663-0.438,6.015-5.479,7.743-6.752c0.036-0.103,0.036-0.188,0.066-0.289c-6.519-6.939-13.527-12.257-27.328-12.013
				c-2.25,0.196-4.507,0.451-6.775,0.668c-3.828,0.81-7.509,2.156-10.266,4.056c-3.477,2.436-6.122,5.729-7.65,10.114
				c-3.444,9.862,0.992,19.367,6.773,23.468c3.965,2.805,9.213,4.27,14.86,5.428c8.959,1.896,18.082,1.324,20.401,9.767
				c3.18,11.71-9.341,17.341-20.486,15.021c-7.546-1.56-13.46-5.698-17.226-11.074h-0.255c-2.708,2.152-5.396,4.337-8.087,6.486
				c0.572,2.086,4.573,5.496,6.254,6.791c5.075,3.896,9.853,6.267,17.729,7.631c1.897,0.338,4.689,0.672,6.846,0.351
				c2.821-0.386,5.072-0.115,7.479-0.704c9.946-2.419,16.726-7.684,18.907-17.854
				C1005.725,244.866,1005.725,241.441,1005.306,239.018z M421.586,187.489c-1.909,0.304-3.894,0.209-5.551,0.72
				c-7.587,2.236-12.004,7.785-13.798,15.811c-0.175,0.069-0.342,0.119-0.536,0.189h-0.065c-0.515-1.127-0.184-3.549-0.184-5.009
				v-11.593c-7.145-0.037-14.307-0.057-21.446-0.104c-0.68,1.493-0.179,4.719-0.179,6.604v69.971
				c7.178,0.021,14.354,0.051,21.529,0.085c0.027-12.302,0.057-24.575,0.096-36.845c0-5.678-0.434-11.592,1.921-14.838
				c3.716-5.096,13.185-4.821,22.067-4.76c0.019-6.722,0.052-13.478,0.089-20.217c-0.089,0-0.182-0.033-0.264-0.07
				C424.047,187.452,422.802,187.489,421.586,187.489z M256.308,221.604c-1.498,6.639-2.977,13.295-4.479,19.969
				c-0.186,0.271-0.085,0.205-0.529,0.236c-2.118-7.834-4.221-15.697-6.319-23.55c-2.959-10.233-5.918-20.457-8.875-30.676h-19.786
				c-1.303,4.774-2.629,9.552-3.955,14.339l-5.689,19.95c-0.605,2.392-1.194,4.81-1.771,7.21c-1.129,4.188-2.23,8.386-3.349,12.554
				c-0.168,0.068-0.345,0.142-0.511,0.173c-0.051,0-0.127-0.031-0.178-0.069c-2.799-12.675-5.604-25.464-8.79-37.784
				c-1.296-5.378-2.581-10.787-3.876-16.162c-0.497-0.708-3.992-0.289-5.107-0.289h-15.648c-0.278,1.596,1.136,4.421,1.602,6.002
				c1.433,5.071,2.875,10.18,4.305,15.292c5.108,18.357,10.253,36.743,15.361,55.097c0.363,0.488,4.514,0.287,5.549,0.287h16.689
				c3.757-11.651,6.22-23.55,10.034-35.252c1.488-5.63,2.986-11.236,4.479-16.865c0.118-0.057,0.242-0.117,0.358-0.172
				c0.068,0.017,0.119,0.055,0.188,0.08c3.118,11.754,6.479,23.535,9.85,34.995c1.613,5.664,3.22,11.315,4.834,16.96
				c0.503,0.672,3.428,0.285,4.478,0.285h13.271c0.789,0,4.78,0.118,5.01-0.184c7-25.428,13.991-50.896,20.991-76.311v-0.08H264.5
				C261.761,198.934,259.029,210.279,256.308,221.604z M583.568,237.604c-1.68,4.912-3.326,9.852-5.009,14.758
				c-0.204-0.03-0.402-0.03-0.604-0.066c-0.876-3.125-1.781-6.222-2.641-9.306c-1.731-5.048-3.408-10.054-5.089-15.064
				c-4.608-12.957-9.214-25.954-13.82-38.928c-1.51-0.687-9.243-0.187-11.593-0.166c-0.033,0.017-0.054,0.048-0.086,0.084
				c8.286,22.993,16.589,46.004,24.873,69c1.06,2.953,2.105,5.914,3.178,8.872c0.239,1.104-2.925,8.604-3.427,9.949
				c-0.541,1.408-1.514,5.916-2.555,6.486c-3.799-0.033-7.566-0.033-11.346-0.065c-0.051,3.325-0.119,6.687-0.17,10.015
				c1.36,0.624,4.354,0.168,6.071,0.168c6.992,0,11.797-1.292,14.588-5.447c1.779-2.639,2.689-5.914,3.882-9.14
				c1.693-4.675,3.409-9.315,5.092-13.981c5.701-15.5,11.211-31.162,16.977-46.765c2.487-6.858,4.989-13.715,7.463-20.571
				c0.806-1.97,3.025-6.556,3.094-8.607H601.1C595.232,205.068,589.419,221.339,583.568,237.604z"/>
		</g>
	</g>
</g>
</svg>
